<svg id="Isolation_Mode" data-name="Isolation Mode" xmlns="http://www.w3.org/2000/svg" viewBox="0 0 39.12 40.74"><defs><style>.cls-1{fill:#1b1748;}</style></defs><title>dark-blue-sails</title><path class="cls-1" d="M15.65,41.39l11.53-.17,13.1-.2L31.47,26.58l-9.14-15C21.14,9.66,20,7.71,18.78,5.77L15.65.65V41.39Z" transform="translate(-1.16 -0.65)"/><path class="cls-1" d="M1.22,40.55a30.8,30.8,0,0,1,.67-8.44A32.2,32.2,0,0,1,8.62,18a32.94,32.94,0,0,1,2.85-3,34,34,0,0,1,4.18-3.25,20.17,20.17,0,0,0-3.29,6.87c-1.46,5.16-1.86,13,3.29,22.73a19,19,0,0,0-5.26-1.83,14.61,14.61,0,0,0-9.17,1" transform="translate(-1.16 -0.65)"/></svg>