<?xml version="1.0" encoding="utf-8"?>
<!-- Generator: Adobe Illustrator 23.0.1, SVG Export Plug-In . SVG Version: 6.00 Build 0)  -->
<svg version="1.1" id="Layer_1" xmlns="http://www.w3.org/2000/svg" xmlns:xlink="http://www.w3.org/1999/xlink" x="0px" y="0px"
	 viewBox="0 0 72 68.8" style="enable-background:new 0 0 72 68.8;" xml:space="preserve">
<style type="text/css">
	.st0{fill:#575757;}
</style>
<g>
	<path class="st0" d="M72,42.2v26.6H56.6V44c0-6.2-2.2-10.5-7.8-10.5c-4.3,0-6.8,2.9-7.9,5.6c-0.4,1-0.5,2.4-0.5,3.8v25.9H24.9
		c0,0,0.2-42.1,0-46.4h15.4V29c0,0.1-0.1,0.1-0.1,0.2h0.1V29c2.1-3.2,5.7-7.7,13.9-7.7C64.4,21.3,72,27.9,72,42.2L72,42.2z M8.7,0
		C3.5,0,0,3.5,0,8c0,4.5,3.4,8,8.5,8h0.1c5.4,0,8.7-3.6,8.7-8C17.3,3.5,14,0,8.7,0L8.7,0z M0.9,68.8h15.4V22.4H0.9V68.8z M0.9,68.8"
		/>
</g>
</svg>
