<svg version="1.1" id="Layer_1" xmlns="http://www.w3.org/2000/svg" xmlns:xlink="http://www.w3.org/1999/xlink" x="0px" y="0px"
	 viewBox="0 0 125.9 152.8" style="enable-background:new 0 0 125.9 152.8;" xml:space="preserve">
<style type="text/css">
	.st0{fill:#EF4136;}
	.st1{opacity:0.2;}
	.st2{fill:#A8AAAB;}
	.st3{fill:#E7E7E7;}
	.st4{fill:#FFFFFF;}
	.st5{fill:#6E6F71;}
	.st6{fill:#262262;}
	.st7{fill:#808285;}
</style>
<g>
	<g>
		<path class="st0" d="M49.2,110.8c10.5-0.2,20.9-0.3,31.4-0.5c11.9-0.2,23.8-0.4,35.6-0.5c-8-13.1-16-26.2-24-39.3
			C83.9,57,75.6,43.4,67.3,29.8c-3.2-5.3-6.4-10.6-9.7-15.8C54.8,9.3,52,4.7,49.2,0c0,18.8,0,37.6,0,56.5
			C49.2,74.6,49.2,92.7,49.2,110.8z"/>
		<path class="st0" d="M9.9,108.5c0,0-1-9.7,1.8-22.9c2.4-11.4,7.5-25.4,18.3-38.3c2.3-2.8,4.9-5.5,7.8-8.1
			c3.4-3.1,7.1-6.1,11.4-8.8c0,0-5.5,6.7-8.9,18.7c-4,14-5.1,35.3,8.9,61.8c0,0-5.9-3.3-14.3-5C27.7,104.5,18.7,104.3,9.9,108.5z"/>
	</g>
	<g class="st1">
		<path class="st2" d="M56.9,107.7l19.5-26.9c0,0,0-0.1,0-0.1c0,0-0.1,0-0.1,0L49.4,99.6L22.1,79.3c0,0-0.1,0-0.1,0c0,0,0,0.1,0,0.1
			l19.6,27.7l-18.8,26.7c0,0,0,0.1,0,0.1c0,0,0.1,0,0.1,0l26.3-18.8l26.7,20.8c0,0,0.1,0,0.1,0c0,0,0-0.1,0-0.1L56.9,107.7z
			 M75.3,81.7l-26,25.9l0.3-7.7L75.3,81.7L75.3,81.7z M23.1,80.5l26.1,19.3l-0.3,7.7L23.1,80.5z M41.9,107.1l7,0.6l0,0l0.1,0l0.1,0
			l0,0l7.3-0.1l18.4,27.1l-0.1,0l-25.8-27l-25.3,25.1l0,0L41.9,107.1z"/>
		<g>
			<g>
				<path class="st3" d="M49.1,133.2c-13.8,0-25.1-11.5-25.1-25.6c0-14.1,11.2-25.6,25.1-25.6s25.1,11.5,25.1,25.6
					C74.2,121.7,63,133.2,49.1,133.2z M49.1,84.9c-12.3,0-22.3,10.2-22.3,22.8c0,12.5,10,22.8,22.3,22.8s22.3-10.2,22.3-22.8
					C71.5,95.1,61.5,84.9,49.1,84.9z"/>
			</g>
		</g>
		<g>
			<g>
				<path class="st4" d="M54.3,102.5l-5-31.9c0,0,0-0.1-0.1-0.1c0,0-0.1,0-0.1,0.1l-5.1,31.7l-31.6,5.7l31.5,4.9l5.3,31.7l4.9-31.5
					l0-0.2l31.6-4.9L54.3,102.5z"/>
				<g>
					<path class="st5" d="M54.3,102.5l-5-31.9c0,0,0-0.1-0.1-0.1c0,0-0.1,0-0.1,0.1l-5.1,31.7L12.9,108c0,0-0.1,0-0.1,0.1
						c0,0,0,0.1,0.1,0.1l31.1,4.9l5.3,31.3c0,0,0,0.1,0.1,0.1s0.1,0,0.1-0.1l4.8-31.3l31.2-4.8c0,0,0.1,0,0.1-0.1c0,0,0-0.1-0.1-0.1
						L54.3,102.5z M49.3,72.1v35.8l-4.9-5.4L49.3,72.1L49.3,72.1z M14.3,108.1l29.9-5.4l4.9,5.4H14.3z M44.2,112.7l5-4.6l0,0
						l0.1-0.1l0.1-0.1l0,0l4.7-5.2l30,5.3l-0.1,0H49.3v34.8l0,0L44.2,112.7z"/>
					<g>
						<polygon class="st4" points="54.2,113.2 49.2,108.2 49.4,108 54.4,113 54.2,113 						"/>
					</g>
				</g>
			</g>
		</g>
	</g>
	<g>
		<g>
			<g>
				<path class="st6" d="M28.1,134.5l1,2.5c-1.7,1.6-3.9,2.5-6.2,2.5c-4.3,0-7.5-3.2-7.5-7.3s3.2-7.3,7.4-7.3c3.5,0,6.3,2.3,6.7,6.1
					l-10.7,3.5c0.7,1.4,2.2,2.4,4.2,2.4C24.8,136.9,26.5,136.2,28.1,134.5z M18.3,132.1l8-2.6c-0.6-1.3-1.9-2-3.4-2
					C20.3,127.4,18.4,129.4,18.3,132.1z"/>
				<path class="st6" d="M36.3,127.9v6.6c0,1.3,0.7,2,1.9,2c0.7,0,1.4-0.2,1.9-0.4v2.7c-0.6,0.2-1.5,0.5-2.5,0.5
					c-2.8,0-4.5-1.7-4.5-4.5v-6.9h-2.1l0.5-2.7h1.6v-2.8l3.1-1.7v4.5h3.8v2.7H36.3z"/>
				<path class="st6" d="M42.9,120.1c0-1.1,0.9-2,2-2c1.1,0,2,0.9,2,2c0,1.1-0.9,2-2,2C43.8,122.1,42.9,121.2,42.9,120.1z
					 M43.4,125.5l3.1-0.5v14.1h-3.1V125.5z"/>
				<path class="st6" d="M58.5,125v3c-2.9,0-4.5,1.4-4.5,4.3v6.8h-3.1v-13.7l3-0.4v2.3C54.7,125.8,56.2,125,58.5,125z"/>
				<path class="st6" d="M72.6,134.5l1,2.5c-1.7,1.6-3.9,2.5-6.2,2.5c-4.3,0-7.5-3.2-7.5-7.3s3.2-7.3,7.4-7.3c3.5,0,6.3,2.3,6.7,6.1
					l-10.7,3.5c0.7,1.4,2.2,2.4,4.2,2.4C69.2,136.9,71,136.2,72.6,134.5z M62.7,132.1l8-2.6c-0.6-1.3-1.9-2-3.4-2
					C64.8,127.4,62.8,129.4,62.7,132.1z"/>
				<path class="st6" d="M87.4,139.1l-6.6-9.1v9.1h-3.3v-21.7h5.2c4.8,0,7.8,2.9,7.8,6.8c0,3.3-2.1,5.7-5.5,6.4l6.4,8.5H87.4z
					 M80.9,128.5h1.6c2.9,0,4.6-1.7,4.6-4.1c0-2.4-1.7-4-4.6-4h-1.6V128.5z"/>
				<path class="st6" d="M94.4,120.1c0-1.1,0.9-2,2.1-2s2,0.9,2,2c0,1.1-0.9,2-2,2S94.4,121.2,94.4,120.1z M94.9,125.5L98,125v14.1
					h-3.1V125.5z"/>
				<path class="st6" d="M106,127.9v6.6c0,1.3,0.7,2,1.9,2c0.7,0,1.4-0.2,1.9-0.4v2.7c-0.6,0.2-1.5,0.5-2.5,0.5
					c-2.8,0-4.5-1.7-4.5-4.5v-6.9h-2.1l0.5-2.7h1.6v-2.8l3.1-1.7v4.5h3.8v2.7H106z"/>
				<path class="st6" d="M124.5,134.5l1,2.5c-1.7,1.6-3.9,2.5-6.2,2.5c-4.3,0-7.5-3.2-7.5-7.3s3.2-7.3,7.4-7.3
					c3.5,0,6.3,2.3,6.7,6.1l-10.7,3.5c0.7,1.4,2.2,2.4,4.2,2.4C121.2,136.9,122.9,136.2,124.5,134.5z M114.7,132.1l8-2.6
					c-0.6-1.3-1.9-2-3.4-2C116.7,127.4,114.8,129.4,114.7,132.1z"/>
			</g>
			<g>
				<path class="st6" d="M10,139.1l-6.6-9.2v9.2H0v-21.9h5.3c4.9,0,7.9,2.9,7.9,6.9c0,3.3-2.2,5.8-5.5,6.5l6.5,8.6H10z M3.4,128.4H5
					c2.9,0,4.7-1.7,4.7-4.2c0-2.4-1.8-4.1-4.7-4.1H3.4V128.4z"/>
			</g>
		</g>
	</g>
	<g>
		<path class="st7" d="M18.7,151.3v-6h2.9v0.5h-2.4v2.4h2.3v0.5h-2.3v2.7H18.7z"/>
		<path class="st7" d="M22.9,145.2v-0.6h0.5v0.6H22.9z M22.9,151.3v-4.5h0.5v4.5H22.9z"/>
		<path class="st7" d="M28.1,151.3v-2.9c0-0.9-0.6-1.3-1.3-1.3c-0.5,0-1,0.2-1.3,0.6v3.6H25v-4.5h0.5v0.4h0c0.4-0.3,0.9-0.5,1.4-0.5
			c0.9,0,1.7,0.5,1.7,1.6v3H28.1z"/>
		<path class="st7" d="M32.7,151.3v-0.4h0c-0.4,0.3-0.8,0.5-1.4,0.5c-0.9,0-1.5-0.5-1.5-1.4c0-0.9,0.6-1.4,1.6-1.4
			c0.5,0,0.9,0.1,1.2,0.3v-0.6c0-0.9-0.6-1.3-1.3-1.3c-0.6,0-1,0.3-1.3,0.6h0v-0.5c0.4-0.3,0.9-0.5,1.4-0.5c0.9,0,1.6,0.5,1.6,1.7
			v2.9H32.7z M32.7,149.4c-0.3-0.2-0.7-0.3-1.2-0.3c-0.8,0-1.2,0.4-1.2,1c0,0.5,0.4,1,1.2,1c0.5,0,0.9-0.2,1.2-0.6V149.4z"/>
		<path class="st7" d="M37.9,151.3v-2.9c0-0.9-0.6-1.3-1.3-1.3c-0.5,0-1,0.2-1.3,0.6v3.6h-0.5v-4.5h0.5v0.4h0
			c0.4-0.3,0.9-0.5,1.4-0.5c0.9,0,1.7,0.5,1.7,1.6v3H37.9z"/>
		<path class="st7" d="M42.8,151c-0.3,0.3-0.8,0.5-1.3,0.5c-1.1,0-2-0.8-2-2.4c0-1.5,0.9-2.4,2-2.4c0.5,0,1,0.2,1.3,0.5v0.6h0
			c-0.3-0.4-0.7-0.6-1.3-0.6c-0.9,0-1.5,0.7-1.5,2c0,1.2,0.6,2,1.6,2c0.6,0,1-0.3,1.3-0.7h0V151z"/>
		<path class="st7" d="M44,145.2v-0.6h0.5v0.6H44z M44,151.3v-4.5h0.5v4.5H44z"/>
		<path class="st7" d="M48.7,151.3v-0.4h0c-0.4,0.3-0.8,0.5-1.4,0.5c-0.9,0-1.5-0.5-1.5-1.4c0-0.9,0.6-1.4,1.6-1.4
			c0.5,0,0.9,0.1,1.2,0.3v-0.6c0-0.9-0.6-1.3-1.3-1.3c-0.6,0-1,0.3-1.3,0.6h0v-0.5c0.4-0.3,0.9-0.5,1.4-0.5c0.9,0,1.6,0.5,1.6,1.7
			v2.9H48.7z M48.7,149.4c-0.3-0.2-0.7-0.3-1.2-0.3c-0.8,0-1.2,0.4-1.2,1c0,0.5,0.4,1,1.2,1c0.5,0,0.9-0.2,1.2-0.6V149.4z"/>
		<path class="st7" d="M50.7,151.3v-6.6h0.5v6.6H50.7z"/>
		<path class="st7" d="M56.5,151.5c-0.6,0-1.2-0.2-1.6-0.6v-0.6h0c0.4,0.5,1,0.8,1.6,0.8c0.8,0,1.3-0.4,1.3-1.1
			c0-1.7-2.9-1.1-2.9-3.2c0-0.8,0.5-1.6,1.7-1.6c0.6,0,1.1,0.2,1.5,0.6v0.6h0c-0.4-0.5-0.9-0.8-1.5-0.8c-0.8,0-1.2,0.5-1.2,1.1
			c0,1.7,2.9,1.1,2.9,3.2C58.3,150.7,57.7,151.5,56.5,151.5z"/>
		<path class="st7" d="M59.8,151.3v-4h-0.3v0l0.3-0.4v-1.3h0.5v1.3h1.1v0.4h-1.1v4H59.8z"/>
		<path class="st7" d="M62.5,151.3v-4.5h0.4v0.4h0c0.3-0.3,0.7-0.6,1.2-0.6c0.2,0,0.3,0,0.5,0.1v0.5h0c-0.2-0.1-0.4-0.2-0.5-0.2
			c-0.4,0-0.8,0.2-1.1,0.6v3.6H62.5z"/>
		<path class="st7" d="M67.9,151.3v-0.4h0c-0.4,0.3-0.8,0.5-1.4,0.5c-0.9,0-1.5-0.5-1.5-1.4c0-0.9,0.6-1.4,1.6-1.4
			c0.5,0,0.9,0.1,1.2,0.3v-0.6c0-0.9-0.6-1.3-1.3-1.3c-0.6,0-1,0.3-1.3,0.6h0v-0.5c0.4-0.3,0.9-0.5,1.4-0.5c0.9,0,1.6,0.5,1.6,1.7
			v2.9H67.9z M67.9,149.4c-0.3-0.2-0.7-0.3-1.2-0.3c-0.8,0-1.2,0.4-1.2,1c0,0.5,0.4,1,1.2,1c0.5,0,0.9-0.2,1.2-0.6V149.4z"/>
		<path class="st7" d="M70,151.3v-4h-0.3v0l0.3-0.4v-1.3h0.5v1.3h1.1v0.4h-1.1v4H70z"/>
		<path class="st7" d="M74.2,151.5c-1.2,0-2.2-0.8-2.2-2.4c0-1.5,0.9-2.4,2-2.4c1.1,0,1.9,0.8,1.9,2c0,0.1,0,0.2,0,0.4h-3.4v0
			c0,1.2,0.7,1.9,1.7,1.9c0.6,0,1.1-0.3,1.4-0.6h0v0.6C75.3,151.3,74.8,151.5,74.2,151.5z M72.5,148.6h2.9c0-0.9-0.6-1.5-1.4-1.5
			C73.2,147.1,72.6,147.7,72.5,148.6z"/>
		<path class="st7" d="M77.4,152.5v-0.6h0c0.3,0.5,0.9,0.7,1.4,0.7c1,0,1.3-0.6,1.3-1.4v-0.4c-0.3,0.3-0.8,0.5-1.4,0.5
			c-1.1,0-2-0.8-2-2.3c0-1.5,0.9-2.3,2.1-2.3c0.5,0,1,0.2,1.3,0.4h0l0.4-0.3h0v4.4c0,1.2-0.7,1.8-1.8,1.8
			C78.3,153,77.7,152.9,77.4,152.5z M80.1,147.6c-0.3-0.3-0.7-0.4-1.2-0.4c-1,0-1.7,0.7-1.7,1.9c0,1.1,0.7,1.9,1.6,1.9
			c0.5,0,1-0.2,1.3-0.5V147.6z"/>
		<path class="st7" d="M82.1,145.2v-0.6h0.5v0.6H82.1z M82.1,151.3v-4.5h0.5v4.5H82.1z"/>
		<path class="st7" d="M86,151.5c-1.2,0-2.2-0.8-2.2-2.4c0-1.5,0.9-2.4,2-2.4c1.1,0,1.9,0.8,1.9,2c0,0.1,0,0.2,0,0.4h-3.4v0
			c0,1.2,0.7,1.9,1.7,1.9c0.6,0,1.1-0.3,1.4-0.6h0v0.6C87.1,151.3,86.5,151.5,86,151.5z M84.3,148.6h2.9c0-0.9-0.6-1.5-1.4-1.5
			C85,147.1,84.4,147.7,84.3,148.6z"/>
		<path class="st7" d="M90,151.5c-0.5,0-1-0.2-1.3-0.5v-0.6h0c0.3,0.4,0.8,0.6,1.2,0.6c0.6,0,0.9-0.3,0.9-0.8c0-1.3-2.2-0.8-2.2-2.4
			c0-0.6,0.4-1.2,1.3-1.2c0.4,0,0.9,0.1,1.2,0.5v0.6h0c-0.3-0.4-0.7-0.6-1.1-0.6c-0.6,0-0.9,0.3-0.9,0.7c0,1.2,2.2,0.7,2.2,2.4
			C91.4,150.9,90.9,151.5,90,151.5z"/>
		<path class="st7" d="M95.1,151.3v-6h0.5v6H95.1z"/>
		<path class="st7" d="M100.5,151.3v-2.9c0-0.9-0.6-1.3-1.3-1.3c-0.5,0-1,0.2-1.3,0.6v3.6h-0.5v-4.5h0.5v0.4h0
			c0.4-0.3,0.9-0.5,1.4-0.5c0.9,0,1.7,0.5,1.7,1.6v3H100.5z"/>
		<path class="st7" d="M105.4,151c-0.3,0.3-0.8,0.5-1.3,0.5c-1.1,0-2-0.8-2-2.4c0-1.5,0.9-2.4,2-2.4c0.5,0,1,0.2,1.3,0.5v0.6h0
			c-0.3-0.4-0.7-0.6-1.3-0.6c-0.9,0-1.5,0.7-1.5,2c0,1.2,0.6,2,1.6,2c0.6,0,1-0.3,1.3-0.7h0V151z"/>
		<path class="st7" d="M106.6,151.3v-0.7h0.6v0.7H106.6z"/>
	</g>
</g>
</svg>
