<?xml version="1.0" encoding="utf-8"?>
<!-- Generator: Adobe Illustrator 23.0.2, SVG Export Plug-In . SVG Version: 6.00 Build 0)  -->
<svg version="1.1" id="Layer_1" xmlns="http://www.w3.org/2000/svg" xmlns:xlink="http://www.w3.org/1999/xlink" x="0px" y="0px"
	 viewBox="0 0 158.7 28.6" style="enable-background:new 0 0 158.7 28.6;" xml:space="preserve">
<style type="text/css">
	.st0{fill:#FFFFFF;}
	.st1{fill:#EF4136;}
</style>
<g>
	<g>
		<path class="st0" d="M60,23.6l1,2.5c-1.7,1.6-3.9,2.5-6.3,2.5c-4.4,0-7.6-3.2-7.6-7.3s3.2-7.4,7.5-7.4c3.5,0,6.4,2.3,6.8,6.2
			l-10.8,3.5c0.8,1.4,2.2,2.4,4.2,2.4C56.6,26.1,58.4,25.3,60,23.6z M50.1,21.2l8.1-2.6c-0.6-1.3-1.9-2.1-3.5-2.1
			C52.1,16.5,50.2,18.5,50.1,21.2z"/>
		<path class="st0" d="M68.3,17v6.7c0,1.3,0.7,2.1,1.9,2.1c0.7,0,1.4-0.2,1.9-0.4v2.8c-0.6,0.3-1.5,0.5-2.5,0.5
			c-2.9,0-4.5-1.7-4.5-4.6v-7H63l0.5-2.7h1.7v-2.9l3.2-1.7v4.6h3.9V17H68.3z"/>
		<path class="st0" d="M74.9,9.1c0-1.1,0.9-2,2.1-2c1.2,0,2.1,0.9,2.1,2s-0.9,2-2.1,2C75.8,11.1,74.9,10.2,74.9,9.1z M75.4,14.5
			l3.2-0.5v14.3h-3.2V14.5z"/>
		<path class="st0" d="M90.6,14v3c-2.9,0-4.5,1.4-4.5,4.4v6.9h-3.2V14.5l3-0.4v2.3C86.8,14.8,88.4,14,90.6,14z"/>
		<path class="st0" d="M104.8,23.6l1,2.5c-1.7,1.6-3.9,2.5-6.3,2.5c-4.4,0-7.6-3.2-7.6-7.3s3.2-7.4,7.5-7.4c3.5,0,6.4,2.3,6.8,6.2
			l-10.8,3.5c0.8,1.4,2.2,2.4,4.2,2.4C101.5,26.1,103.2,25.3,104.8,23.6z M94.9,21.2l8.1-2.6c-0.6-1.3-1.9-2.1-3.5-2.1
			C96.9,16.5,95,18.5,94.9,21.2z"/>
		<path class="st0" d="M119.8,28.3l-6.6-9.2v9.2h-3.4V6.3h5.3c4.9,0,7.9,2.9,7.9,6.9c0,3.3-2.2,5.8-5.5,6.5l6.5,8.6H119.8z
			 M113.2,17.5h1.7c2.9,0,4.7-1.7,4.7-4.2c0-2.4-1.8-4.1-4.7-4.1h-1.7V17.5z"/>
		<path class="st0" d="M126.8,9.1c0-1.1,0.9-2,2.1-2c1.2,0,2.1,0.9,2.1,2s-0.9,2-2.1,2C127.8,11.1,126.8,10.2,126.8,9.1z
			 M127.3,14.5l3.2-0.5v14.3h-3.2V14.5z"/>
		<path class="st0" d="M138.6,17v6.7c0,1.3,0.7,2.1,1.9,2.1c0.7,0,1.4-0.2,1.9-0.4v2.8c-0.6,0.3-1.5,0.5-2.5,0.5
			c-2.9,0-4.5-1.7-4.5-4.6v-7h-2.1l0.5-2.7h1.7v-2.9l3.2-1.7v4.6h3.9V17H138.6z"/>
		<path class="st0" d="M157.3,23.6l1,2.5c-1.7,1.6-3.9,2.5-6.3,2.5c-4.4,0-7.6-3.2-7.6-7.3s3.2-7.4,7.5-7.4c3.5,0,6.4,2.3,6.8,6.2
			l-10.8,3.5c0.8,1.4,2.2,2.4,4.2,2.4C153.9,26.1,155.6,25.3,157.3,23.6z M147.3,21.2l8.1-2.6c-0.6-1.3-1.9-2.1-3.5-2.1
			C149.4,16.5,147.4,18.5,147.3,21.2z"/>
	</g>
	<g>
		<path class="st0" d="M41.6,28.3L35,19v9.3h-3.4V6.2h5.3c4.9,0,7.9,2.9,7.9,6.9c0,3.3-2.2,5.8-5.6,6.5l6.5,8.7H41.6z M35,17.4h1.7
			c2.9,0,4.7-1.7,4.7-4.2c0-2.4-1.8-4.1-4.7-4.1H35V17.4z"/>
	</g>
	<g>
		<path class="st1" d="M10,28.1c2.7,0,5.3-0.1,8-0.1c3,0,6-0.1,9-0.1c-2-3.3-4.1-6.6-6.1-10c-2.1-3.4-4.2-6.9-6.3-10.3
			c-0.8-1.3-1.6-2.7-2.5-4C11.4,2.4,10.7,1.2,10,0c0,4.8,0,9.5,0,14.3C10,18.9,10,23.5,10,28.1z"/>
		<path class="st1" d="M0,27.5c0,0-0.2-2.4,0.5-5.8c0.6-2.9,1.9-6.4,4.6-9.7c0.6-0.7,1.2-1.4,2-2.1C8,9.1,8.9,8.4,10,7.7
			c0,0-1.4,1.7-2.3,4.7c-1,3.6-1.3,9,2.3,15.7c0,0-1.5-0.8-3.6-1.3C4.6,26.5,2.3,26.5,0,27.5z"/>
	</g>
</g>
</svg>
