<?xml version="1.0" encoding="utf-8"?>
<!-- Generator: Adobe Illustrator 23.0.2, SVG Export Plug-In . SVG Version: 6.00 Build 0)  -->
<svg version="1.1" id="Layer_1" xmlns="http://www.w3.org/2000/svg" xmlns:xlink="http://www.w3.org/1999/xlink" x="0px" y="0px"
	 viewBox="0 0 125.95 152.76" style="enable-background:new 0 0 125.95 152.76;" xml:space="preserve">
<style type="text/css">
	.st0{fill:#363636;}
	.st1{opacity:0.2;}
	.st2{fill:#A8AAAB;}
	.st3{fill:#E7E7E7;}
	.st4{fill:#FFFFFF;}
	.st5{fill:#6E6F71;}
	.st6{fill:#808285;}
</style>
<g>
	<g>
		<path class="st0" d="M49.17,110.83c10.46-0.16,20.92-0.32,31.38-0.48c11.88-0.18,23.75-0.36,35.63-0.54
			c-7.99-13.09-15.97-26.18-23.96-39.26c-8.29-13.59-16.58-27.18-24.88-40.77c-3.22-5.28-6.44-10.56-9.66-15.84
			C54.84,9.3,52,4.65,49.17,0c0,18.82,0,37.64,0,56.46C49.17,74.58,49.17,92.71,49.17,110.83z"/>
		<path class="st0" d="M9.93,108.54c0,0-0.95-9.66,1.83-22.94c2.38-11.38,7.49-25.42,18.29-38.33c2.32-2.77,4.89-5.49,7.76-8.11
			c3.37-3.09,7.14-6.06,11.36-8.84c0,0-5.53,6.67-8.94,18.69c-3.98,14.03-5.06,35.34,8.94,61.82c0,0-5.88-3.35-14.3-4.98
			C27.71,104.47,18.71,104.32,9.93,108.54z"/>
	</g>
	<g class="st1">
		<path class="st2" d="M56.87,107.66l19.46-26.92c0.02-0.03,0.02-0.06-0.01-0.09c-0.02-0.02-0.06-0.03-0.09-0.01L49.35,99.57
			L22.06,79.34c-0.03-0.02-0.06-0.02-0.09,0.01c-0.02,0.02-0.03,0.06-0.01,0.09l19.57,27.69l-18.82,26.71
			c-0.02,0.03-0.02,0.06,0.01,0.09c0.02,0.02,0.06,0.03,0.09,0.01l26.34-18.83l26.73,20.79c0.03,0.02,0.06,0.02,0.09,0
			c0.02-0.02,0.03-0.06,0.01-0.09L56.87,107.66z M75.25,81.71l-26.02,25.86l0.26-7.73L75.26,81.7L75.25,81.71z M23.07,80.48
			L49.2,99.83l-0.26,7.74L23.07,80.48z M41.9,107.15l7.04,0.57l0,0l0.15,0.01l0.15,0.01l0-0.01l7.28-0.07l18.43,27.13l-0.05-0.04
			l-25.8-27.02l-25.29,25.15l-0.03,0.02L41.9,107.15z"/>
		<g>
			<g>
				<path class="st3" d="M49.15,133.18c-13.82,0-25.07-11.47-25.07-25.56c0-14.09,11.25-25.56,25.07-25.56s25.07,11.47,25.07,25.56
					C74.22,121.71,62.97,133.18,49.15,133.18z M49.15,84.87c-12.3,0-22.32,10.21-22.32,22.75c0,12.54,10.01,22.75,22.32,22.75
					s22.32-10.21,22.32-22.75C71.46,95.07,61.45,84.87,49.15,84.87z"/>
			</g>
		</g>
		<g>
			<g>
				<path class="st4" d="M54.34,102.52l-4.99-31.87c0-0.03-0.03-0.06-0.06-0.06c-0.03,0-0.06,0.02-0.06,0.06l-5.14,31.73
					l-31.62,5.69l31.48,4.91l5.34,31.68l4.88-31.49l0.03-0.19l31.63-4.91L54.34,102.52z"/>
				<g>
					<path class="st5" d="M54.34,102.52l-5-31.88c0-0.03-0.03-0.05-0.06-0.05c-0.03,0-0.06,0.02-0.06,0.05l-5.14,31.74L12.86,108
						c-0.03,0.01-0.05,0.03-0.05,0.07c0,0.03,0.02,0.06,0.06,0.06l31.09,4.85l5.28,31.29c0.01,0.03,0.03,0.05,0.06,0.05
						s0.06-0.02,0.06-0.06l4.85-31.29l31.23-4.85c0.03,0,0.06-0.03,0.06-0.07c0-0.03-0.02-0.06-0.05-0.07L54.34,102.52z
						 M49.28,72.05v35.79l-4.92-5.4l4.92-30.41L49.28,72.05z M14.27,108.06l29.89-5.4l4.93,5.4H14.27z M44.19,112.74l4.99-4.59l0,0
						l0.1-0.1l0.1-0.1l-0.01-0.01l4.72-5.19l29.97,5.28l-0.06,0.01H49.28v34.8l0,0.04L44.19,112.74z"/>
					<g>
						<polygon class="st4" points="54.17,113.16 49.18,108.15 49.38,107.95 54.37,112.95 54.2,112.98 						"/>
					</g>
				</g>
			</g>
		</g>
	</g>
	<g>
		<g>
			<g>
				<path class="st0" d="M28.14,134.49l1.02,2.52c-1.71,1.55-3.88,2.45-6.21,2.45c-4.35,0-7.52-3.17-7.52-7.27s3.2-7.3,7.39-7.3
					c3.51,0,6.3,2.3,6.74,6.15l-10.75,3.48c0.75,1.43,2.21,2.39,4.16,2.39C24.79,136.91,26.53,136.17,28.14,134.49z M18.3,132.07
					l7.98-2.61c-0.59-1.27-1.89-2.05-3.45-2.05C20.32,127.41,18.39,129.43,18.3,132.07z"/>
				<path class="st0" d="M36.34,127.9v6.62c0,1.3,0.71,2.05,1.93,2.05c0.65,0,1.43-0.22,1.89-0.4v2.73
					c-0.56,0.25-1.49,0.47-2.48,0.47c-2.83,0-4.47-1.71-4.47-4.53v-6.93h-2.11l0.47-2.67h1.65v-2.83l3.14-1.71v4.53h3.82v2.67H36.34
					z"/>
				<path class="st0" d="M42.89,120.11c0-1.12,0.9-1.99,2.05-1.99c1.15,0,2.05,0.87,2.05,1.99c0,1.12-0.9,1.99-2.05,1.99
					C43.79,122.1,42.89,121.23,42.89,120.11z M43.39,125.48l3.14-0.5v14.13h-3.14V125.48z"/>
				<path class="st0" d="M58.48,124.99v2.95c-2.92,0-4.47,1.4-4.47,4.35v6.83h-3.14v-13.66l2.95-0.43v2.3
					C54.72,125.79,56.24,124.99,58.48,124.99z"/>
				<path class="st0" d="M72.58,134.49L73.6,137c-1.71,1.55-3.88,2.45-6.21,2.45c-4.35,0-7.52-3.17-7.52-7.27s3.2-7.3,7.39-7.3
					c3.51,0,6.3,2.3,6.74,6.15l-10.74,3.48c0.74,1.43,2.2,2.39,4.16,2.39C69.22,136.91,70.96,136.17,72.58,134.49z M62.73,132.07
					l7.98-2.61c-0.59-1.27-1.89-2.05-3.45-2.05C64.75,127.41,62.82,129.43,62.73,132.07z"/>
				<path class="st0" d="M87.42,139.12l-6.55-9.1v9.1h-3.32v-21.74h5.22c4.81,0,7.79,2.89,7.79,6.8c0,3.26-2.14,5.71-5.5,6.43
					l6.43,8.51H87.42z M80.86,128.46h1.65c2.89,0,4.63-1.71,4.63-4.13c0-2.36-1.74-4.04-4.63-4.04h-1.65V128.46z"/>
				<path class="st0" d="M94.37,120.11c0-1.12,0.9-1.99,2.05-1.99s2.05,0.87,2.05,1.99c0,1.12-0.9,1.99-2.05,1.99
					S94.37,121.23,94.37,120.11z M94.87,125.48l3.14-0.5v14.13h-3.14V125.48z"/>
				<path class="st0" d="M106.04,127.9v6.62c0,1.3,0.71,2.05,1.93,2.05c0.65,0,1.43-0.22,1.89-0.4v2.73
					c-0.56,0.25-1.49,0.47-2.48,0.47c-2.83,0-4.47-1.71-4.47-4.53v-6.93h-2.11l0.47-2.67h1.65v-2.83l3.14-1.71v4.53h3.82v2.67
					H106.04z"/>
				<path class="st0" d="M124.52,134.49l1.03,2.52c-1.71,1.55-3.88,2.45-6.21,2.45c-4.35,0-7.52-3.17-7.52-7.27s3.2-7.3,7.39-7.3
					c3.51,0,6.3,2.3,6.74,6.15l-10.74,3.48c0.74,1.43,2.2,2.39,4.16,2.39C121.17,136.91,122.91,136.17,124.52,134.49z
					 M114.68,132.07l7.98-2.61c-0.59-1.27-1.89-2.05-3.45-2.05C116.7,127.41,114.77,129.43,114.68,132.07z"/>
			</g>
			<g>
				<path class="st0" d="M9.96,139.12l-6.61-9.17v9.17H0V117.2h5.26c4.85,0,7.86,2.91,7.86,6.86c0,3.29-2.16,5.76-5.54,6.48
					l6.48,8.58H9.96z M3.35,128.38h1.66c2.91,0,4.67-1.72,4.67-4.16c0-2.38-1.75-4.07-4.67-4.07H3.35V128.38z"/>
			</g>
		</g>
	</g>
	<g>
		<path class="st6" d="M18.75,151.3v-6.04h2.93v0.47h-2.43v2.42h2.35v0.47h-2.35v2.68H18.75z"/>
		<path class="st6" d="M22.87,145.22v-0.56h0.53v0.56H22.87z M22.91,151.3v-4.45h0.46v4.45H22.91z"/>
		<path class="st6" d="M28.09,151.3v-2.85c0-0.92-0.57-1.33-1.32-1.33c-0.55,0-0.98,0.21-1.33,0.6v3.58h-0.46v-4.45h0.45v0.39h0.01
			c0.37-0.34,0.86-0.55,1.43-0.55c0.94,0,1.68,0.52,1.68,1.62v2.99H28.09z"/>
		<path class="st6" d="M32.74,151.3v-0.37h-0.01c-0.35,0.33-0.82,0.53-1.38,0.53c-0.88,0-1.5-0.54-1.5-1.36
			c0-0.87,0.6-1.43,1.65-1.43c0.46,0,0.89,0.12,1.22,0.31v-0.56c0-0.94-0.56-1.29-1.26-1.29c-0.56,0-1.04,0.27-1.31,0.63h-0.03
			v-0.52c0.36-0.35,0.87-0.54,1.41-0.54c0.95,0,1.65,0.55,1.65,1.66v2.95H32.74z M32.72,149.4c-0.3-0.2-0.73-0.34-1.15-0.34
			c-0.78,0-1.24,0.36-1.24,0.98c0,0.55,0.38,0.99,1.15,0.99c0.49,0,0.92-0.21,1.24-0.58V149.4z"/>
		<path class="st6" d="M37.86,151.3v-2.85c0-0.92-0.57-1.33-1.32-1.33c-0.55,0-0.98,0.21-1.33,0.6v3.58h-0.46v-4.45h0.45v0.39h0.01
			c0.37-0.34,0.86-0.55,1.42-0.55c0.94,0,1.68,0.52,1.68,1.62v2.99H37.86z"/>
		<path class="st6" d="M42.81,150.95c-0.33,0.33-0.81,0.5-1.35,0.5c-1.12,0-2.02-0.82-2.02-2.38c0-1.54,0.88-2.39,2.01-2.39
			c0.52,0,1,0.17,1.33,0.5v0.58h-0.03c-0.26-0.36-0.72-0.65-1.27-0.65c-0.94,0-1.54,0.74-1.54,1.96c0,1.21,0.62,1.96,1.57,1.96
			c0.57,0,1.02-0.27,1.27-0.65h0.03V150.95z"/>
		<path class="st6" d="M43.97,145.22v-0.56h0.53v0.56H43.97z M44.01,151.3v-4.45h0.46v4.45H44.01z"/>
		<path class="st6" d="M48.71,151.3v-0.37H48.7c-0.35,0.33-0.82,0.53-1.38,0.53c-0.88,0-1.5-0.54-1.5-1.36
			c0-0.87,0.6-1.43,1.65-1.43c0.46,0,0.89,0.12,1.22,0.31v-0.56c0-0.94-0.56-1.29-1.26-1.29c-0.56,0-1.04,0.27-1.31,0.63h-0.03
			v-0.52c0.36-0.35,0.87-0.54,1.41-0.54c0.95,0,1.65,0.55,1.65,1.66v2.95H48.71z M48.69,149.4c-0.3-0.2-0.73-0.34-1.15-0.34
			c-0.78,0-1.24,0.36-1.24,0.98c0,0.55,0.38,0.99,1.15,0.99c0.49,0,0.92-0.21,1.24-0.58V149.4z"/>
		<path class="st6" d="M50.71,151.3v-6.64h0.46v6.64H50.71z"/>
		<path class="st6" d="M56.48,151.46c-0.62,0-1.24-0.19-1.64-0.61v-0.63h0.03c0.41,0.52,0.98,0.79,1.61,0.79
			c0.82,0,1.33-0.44,1.33-1.12c0-1.72-2.94-1.09-2.94-3.22c0-0.81,0.52-1.56,1.72-1.56c0.57,0,1.12,0.19,1.5,0.61v0.62h-0.03
			c-0.39-0.51-0.94-0.78-1.49-0.78c-0.8,0-1.21,0.46-1.21,1.07c0,1.7,2.94,1.06,2.94,3.23C58.31,150.75,57.65,151.46,56.48,151.46z"
			/>
		<path class="st6" d="M59.8,151.3v-4.02h-0.33v-0.03l0.33-0.41v-1.35h0.46v1.35h1.12v0.43h-1.12v4.02H59.8z"/>
		<path class="st6" d="M62.47,151.3v-4.45h0.44v0.4h0.01c0.34-0.32,0.71-0.56,1.18-0.56c0.17,0,0.33,0.03,0.48,0.08v0.53h-0.03
			c-0.16-0.11-0.35-0.15-0.54-0.15c-0.42,0-0.76,0.24-1.08,0.57v3.59H62.47z"/>
		<path class="st6" d="M67.94,151.3v-0.37h-0.01c-0.35,0.33-0.82,0.53-1.38,0.53c-0.88,0-1.5-0.54-1.5-1.36
			c0-0.87,0.6-1.43,1.65-1.43c0.46,0,0.89,0.12,1.22,0.31v-0.56c0-0.94-0.56-1.29-1.26-1.29c-0.56,0-1.04,0.27-1.31,0.63h-0.03
			v-0.52c0.36-0.35,0.87-0.54,1.41-0.54c0.95,0,1.65,0.55,1.65,1.66v2.95H67.94z M67.93,149.4c-0.3-0.2-0.73-0.34-1.15-0.34
			c-0.78,0-1.24,0.36-1.24,0.98c0,0.55,0.38,0.99,1.15,0.99c0.49,0,0.92-0.21,1.24-0.58V149.4z"/>
		<path class="st6" d="M70.01,151.3v-4.02h-0.33v-0.03l0.33-0.41v-1.35h0.46v1.35h1.12v0.43h-1.12v4.02H70.01z"/>
		<path class="st6" d="M74.21,151.46c-1.21,0-2.17-0.83-2.17-2.38c0-1.54,0.87-2.39,1.99-2.39c1.07,0,1.89,0.82,1.89,2.02
			c0,0.11-0.01,0.24-0.02,0.36h-3.37v0.04c0,1.23,0.71,1.93,1.73,1.93c0.64,0,1.13-0.27,1.42-0.65h0.03v0.56
			C75.34,151.28,74.8,151.46,74.21,151.46z M72.55,148.65h2.89c-0.01-0.89-0.58-1.53-1.41-1.53
			C73.22,147.12,72.64,147.7,72.55,148.65z"/>
		<path class="st6" d="M77.35,152.51v-0.58h0.03c0.33,0.46,0.86,0.66,1.42,0.66c0.98,0,1.32-0.6,1.32-1.39v-0.43
			c-0.33,0.3-0.81,0.5-1.37,0.5c-1.09,0-1.98-0.81-1.98-2.29c0-1.48,0.89-2.3,2.09-2.3c0.5,0,0.96,0.18,1.29,0.42h0.01l0.41-0.27
			h0.02v4.35c0,1.25-0.69,1.83-1.77,1.83C78.3,153.01,77.71,152.87,77.35,152.51z M80.11,147.56c-0.3-0.27-0.74-0.44-1.19-0.44
			c-1,0-1.67,0.7-1.67,1.86c0,1.14,0.65,1.87,1.6,1.87c0.53,0,0.96-0.21,1.26-0.54V147.56z"/>
		<path class="st6" d="M82.11,145.22v-0.56h0.53v0.56H82.11z M82.15,151.3v-4.45h0.46v4.45H82.15z"/>
		<path class="st6" d="M85.95,151.46c-1.21,0-2.17-0.83-2.17-2.38c0-1.54,0.87-2.39,1.99-2.39c1.07,0,1.89,0.82,1.89,2.02
			c0,0.11-0.01,0.24-0.02,0.36h-3.37v0.04c0,1.23,0.71,1.93,1.74,1.93c0.64,0,1.13-0.27,1.42-0.65h0.03v0.56
			C87.09,151.28,86.55,151.46,85.95,151.46z M84.29,148.65h2.89c-0.01-0.89-0.58-1.53-1.41-1.53
			C84.96,147.12,84.39,147.7,84.29,148.65z"/>
		<path class="st6" d="M89.97,151.46c-0.51,0-0.96-0.15-1.26-0.47v-0.56h0.03c0.3,0.4,0.76,0.61,1.24,0.61
			c0.57,0,0.94-0.31,0.94-0.77c0-1.26-2.19-0.77-2.19-2.4c0-0.65,0.43-1.19,1.32-1.19c0.44,0,0.89,0.14,1.17,0.46v0.56h-0.03
			c-0.27-0.35-0.69-0.6-1.13-0.6c-0.57,0-0.86,0.31-0.86,0.74c0,1.24,2.18,0.72,2.18,2.39C91.38,150.93,90.89,151.46,89.97,151.46z"
			/>
		<path class="st6" d="M95.12,151.3v-6.04h0.5v6.04H95.12z"/>
		<path class="st6" d="M100.46,151.3v-2.85c0-0.92-0.57-1.33-1.32-1.33c-0.55,0-0.98,0.21-1.33,0.6v3.58h-0.46v-4.45h0.45v0.39h0.01
			c0.37-0.34,0.86-0.55,1.43-0.55c0.94,0,1.68,0.52,1.68,1.62v2.99H100.46z"/>
		<path class="st6" d="M105.41,150.95c-0.33,0.33-0.81,0.5-1.35,0.5c-1.12,0-2.02-0.82-2.02-2.38c0-1.54,0.88-2.39,2.01-2.39
			c0.52,0,1,0.17,1.33,0.5v0.58h-0.03c-0.26-0.36-0.72-0.65-1.27-0.65c-0.94,0-1.54,0.74-1.54,1.96c0,1.21,0.62,1.96,1.57,1.96
			c0.57,0,1.02-0.27,1.27-0.65h0.03V150.95z"/>
		<path class="st6" d="M106.64,151.3v-0.67h0.56v0.67H106.64z"/>
	</g>
</g>
</svg>
