<svg xmlns="http://www.w3.org/2000/svg" xmlns:xlink="http://www.w3.org/1999/xlink" viewBox="0 0 834.1 616.02"><defs><style>.cls-1{isolation:isolate;}.cls-11,.cls-2{fill:#bbdbea;}.cls-2{opacity:0.25;}.cls-3{fill:#adccd8;opacity:0.57;}.cls-4{fill:#ccf1ff;}.cls-5{fill:#8ea8b2;}.cls-6{fill:#e3faff;}.cls-7{fill:#a9c9d3;}.cls-8{opacity:0.61;mix-blend-mode:color-burn;}.cls-9{fill:url(#linear-gradient);}.cls-10{mix-blend-mode:multiply;}</style><linearGradient id="linear-gradient" x1="483.78" y1="472.63" x2="470.66" y2="332.1" gradientTransform="translate(8.05 -10.14) rotate(1.24)" gradientUnits="userSpaceOnUse"><stop offset="0" stop-color="#fff"/><stop offset="1"/></linearGradient></defs><title>Asset 6</title><g class="cls-1"><g id="Layer_2" data-name="Layer 2"><g id="Layer_1-2" data-name="Layer 1"><path class="cls-2" d="M831.22,390.06s-7,126.51-115,135.92-111.87,5.23-145.51,40.78S408,643.08,340,591.85,202.26,459.07,124,497.75s-221.39-88.87-25-344S478.41,23.08,495.62,89s68.84,105.6,133,58.55S857.82,152.73,831.22,390.06Z"/><polygon class="cls-3" points="480.2 460.72 336.19 363.56 326.58 252.3 451.61 349.36 589.14 429.45 480.2 460.72"/><polyline class="cls-4" points="336.19 363.56 482.27 305.48 480.2 460.72"/><path class="cls-5" d="M409.65,413.13l71.62-103c.51-3-.2-3-2.91-2Z"/><polygon class="cls-6" points="326.58 252.3 438.11 370.94 589.14 429.45 480.2 460.72 336.19 363.56 326.58 252.3"/><polygon class="cls-7" points="336.19 363.56 438.11 370.94 480.2 460.72 336.19 363.56"/><g class="cls-8"><path class="cls-9" d="M589.14,429.45,453.72,377h0c-13.73-5.36-12.48,5.63-16.12,5.58-10.21-.13-11.73-5.47-15.89,4.05-3.6,8.25-6-13.71-14.93.55-4.13,6.6-13.56-12.21-20.92-6.6-8.88,6.79-5.23.89-13.1-2.91-7.28-3.52-8.53,4.82-8.53,4.82h0l116,78.24Z"/></g><g class="cls-10"><path class="cls-11" d="M759.52,373.86c-25.44-29.83-75.45-3.51-102.65,18.43s-33.22-1-93-17.55c-58.67-16.25-73.89-1.36-138.63,15.79-29.77,7.89-50.12-12.13-114.06-16.67-48.51-3.44-53,13.65-77.21,20.18-41.71,11.26-50.88,1.76-101.77-14s-74.58,17.54-74.58,17.54c-18.47,16.17-38.12,20-54.37,19.22,14.88,73.14,77.69,102.3,120.79,81,78.22-38.68,147.85,42.87,215.91,94.1s197.13,10.46,230.77-25.09S608.27,535.39,716.23,526s115-135.92,115-135.92c.47-4.18.87-8.3,1.23-12.37C812.4,385.31,777.14,394.52,759.52,373.86Z"/></g></g></g></g></svg>