<?xml version="1.0" encoding="utf-8"?>
<!-- Generator: Adobe Illustrator 23.0.2, SVG Export Plug-In . SVG Version: 6.00 Build 0)  -->
<svg version="1.1" id="Layer_1" xmlns="http://www.w3.org/2000/svg" xmlns:xlink="http://www.w3.org/1999/xlink" x="0px" y="0px"
	 viewBox="0 0 12.8 10.4" style="enable-background:new 0 0 12.8 10.4;" xml:space="preserve">
<style type="text/css">
	.st0{fill:#FFFFFF;}
</style>
<g>
	<path class="st0" d="M12.8,1.2c-0.5,0.2-1,0.4-1.5,0.4c0.5-0.3,1-0.8,1.2-1.5c-0.5,0.3-1.1,0.5-1.7,0.6C10.3,0.3,9.6,0,8.9,0
		C7.4,0,6.2,1.2,6.2,2.6c0,0.2,0,0.4,0.1,0.6C4.1,3.1,2.2,2.1,0.9,0.5C0.7,0.9,0.5,1.3,0.5,1.8C0.5,2.7,1,3.5,1.7,4
		C1.3,4,0.9,3.9,0.5,3.7l0,0C0.5,5,1.4,6,2.6,6.3c-0.2,0-0.4,0.1-0.7,0.1c-0.2,0-0.3,0-0.5,0c0.3,1,1.3,1.8,2.5,1.8
		C3,8.8,1.9,9.3,0.6,9.3c-0.2,0-0.4,0-0.6,0c1.2,0.7,2.5,1.2,4,1.2c4.8,0,7.5-4,7.5-7.5V2.7C12,2.2,12.4,1.8,12.8,1.2L12.8,1.2z"/>
</g>
</svg>
